<svg width="54" height="54" viewBox="0 0 54 54" fill="none" xmlns="http://www.w3.org/2000/svg">
<circle cx="27" cy="27" r="27" fill="#071419"/>
<path d="M32.8333 17.0612H21.1664C17.9464 17.0612 15.333 19.6629 15.333 22.8713V31.0147C15.333 34.2231 17.9464 36.8248 21.1664 36.8248H22.9164C23.2315 36.8248 23.6515 37.0348 23.8498 37.2915L25.5998 39.6132C26.3698 40.6398 27.6298 40.6398 28.3999 39.6132L30.1499 37.2915C30.3715 36.9998 30.7216 36.8248 31.0832 36.8248H32.8333C36.0533 36.8248 38.6667 34.2231 38.6667 31.0147V22.8713C38.6667 19.6629 36.0533 17.0612 32.8333 17.0612ZM28.1665 30.7697H21.1664C20.6881 30.7697 20.2914 30.373 20.2914 29.8947C20.2914 29.4164 20.6881 29.0197 21.1664 29.0197H28.1665C28.6449 29.0197 29.0415 29.4164 29.0415 29.8947C29.0415 30.373 28.6449 30.7697 28.1665 30.7697ZM32.8333 24.9363H21.1664C20.6881 24.9363 20.2914 24.5396 20.2914 24.0613C20.2914 23.5829 20.6881 23.1863 21.1664 23.1863H32.8333C33.3116 23.1863 33.7083 23.5829 33.7083 24.0613C33.7083 24.5396 33.3116 24.9363 32.8333 24.9363Z" fill="white"/>
</svg>
