<svg width="163" height="26" viewBox="0 0 163 26" fill="none" xmlns="http://www.w3.org/2000/svg">
<path d="M12.5686 0L15.3904 8.68472H24.5221L17.1344 14.0522L19.9562 22.7369L12.5686 17.3694L5.18096 22.7369L8.00279 14.0522L0.615151 8.68472H9.74677L12.5686 0Z" fill="#FFF500"/>
<path d="M47.0588 0L49.8807 8.68472H59.0123L51.6246 14.0522L54.4465 22.7369L47.0588 17.3694L39.6712 22.7369L42.493 14.0522L35.1054 8.68472H44.237L47.0588 0Z" fill="#FFF500"/>
<path d="M81.55 0L84.3719 8.68472H93.5035L86.1159 14.0522L88.9377 22.7369L81.55 17.3694L74.1624 22.7369L76.9842 14.0522L69.5966 8.68472H78.7282L81.55 0Z" fill="#FFF500"/>
<path d="M116.04 0L118.862 8.68472H127.994L120.606 14.0522L123.428 22.7369L116.04 17.3694L108.653 22.7369L111.474 14.0522L104.087 8.68472H113.218L116.04 0Z" fill="#FFF500"/>
<path d="M150.532 0L153.353 8.68472L155 15L157 22.069L157.919 22.7369L150.532 17.3694L143.144 22.7369L145.966 14.0522L138.578 8.68472H147.71L150.532 0Z" fill="#FFF500"/>
</svg>
