<svg width="69" height="41" viewBox="0 0 69 41" fill="none" xmlns="http://www.w3.org/2000/svg">
<path d="M12.3895 1.98535H0.908331V4.00124H5.4474V11.3305H7.85044V4.00124H12.3895V1.98535ZM20.0416 3.33373C18.1325 3.33373 16.5839 3.96119 15.4625 4.8423V0.650333H13.1796V11.3305H15.4625V6.92493C16.17 6.09722 17.8255 5.30956 19.3607 5.30956C21.2431 5.30956 21.8038 6.17732 21.8038 7.8461V11.3305H24.1001L24.1268 6.97834C24.1001 4.08134 22.1376 3.33373 20.0416 3.33373ZM30.2365 9.60833C28.7145 9.60833 27.513 9.19447 27.2594 7.93955H35.7501C35.7501 4.36169 33.3604 3.33373 30.37 3.33373C27.1793 3.33373 24.9231 4.50855 24.9231 7.40554C24.9231 10.2892 27.246 11.464 30.2365 11.464C33.1468 11.464 35.0959 10.5161 35.6166 8.51361H33.3471C32.773 9.31462 31.8118 9.60833 30.2365 9.60833ZM30.3566 5.06925C31.7984 5.06925 32.9199 5.37631 33.307 6.48438H27.3395C27.6999 5.37631 28.7946 5.06925 30.3566 5.06925ZM11.0545 14.9854V18.6433H3.44487V14.9854H1.04183V24.3305H3.44487V20.6725H11.0545V24.3305H13.4575V14.9854H11.0545ZM19.7023 22.6083C18.1804 22.6083 16.9789 22.1945 16.7252 20.9396H25.2159C25.2159 17.3617 22.8263 16.3337 19.8358 16.3337C16.6451 16.3337 14.3889 17.5085 14.3889 20.4055C14.3889 23.2892 16.7119 24.464 19.7023 24.464C22.6127 24.464 24.5618 23.5161 25.0824 21.5136H22.8129C22.2388 22.3146 21.2776 22.6083 19.7023 22.6083ZM19.8225 18.0693C21.2643 18.0693 22.3857 18.3763 22.7729 19.4844H16.8053C17.1658 18.3763 18.2605 18.0693 19.8225 18.0693ZM26.0865 13.6503V24.3305H28.3694V13.6503H26.0865ZM35.7232 16.3337C34.0277 16.3337 32.666 16.801 31.8116 17.6821V16.4672H29.5153V27.6681H31.8116V23.1156C32.666 24.0101 34.0277 24.464 35.7232 24.464C38.2597 24.464 40.4091 23.4093 40.4091 20.4055C40.4091 17.4017 38.2597 16.3337 35.7232 16.3337ZM34.9622 22.5549C32.9196 22.5549 31.8116 21.9542 31.8116 20.4055C31.8116 18.8436 32.9196 18.2428 34.9622 18.2428C37.0048 18.2428 38.1262 18.8436 38.1262 20.4055C38.1262 21.9542 37.0048 22.5549 34.9622 22.5549ZM0.908331 34.1131C0.908331 36.8098 3.19122 37.464 7.02273 37.464C10.4804 37.464 12.8434 36.9567 12.8434 34.4602C12.8434 32.0972 10.5605 31.897 6.87588 31.6967C4.15243 31.5365 3.59172 31.403 3.59172 30.6821C3.59172 29.9879 4.15243 29.7609 6.51542 29.7609C9.01191 29.7609 10.0399 30.0146 10.0399 31.0426H12.4429C12.4429 28.733 10.3069 27.8519 6.78243 27.8519C3.28467 27.8519 1.18869 28.506 1.18869 30.5619C1.18869 32.6579 2.80406 33.2987 6.87588 33.4856C9.90638 33.6325 10.4404 33.766 10.4404 34.5403C10.4404 35.2746 9.67942 35.5549 7.15623 35.5549C4.11238 35.5549 3.31137 35.101 3.31137 34.1131H0.908331ZM22.1781 29.4672V30.6821C21.3237 29.801 19.962 29.3337 18.2665 29.3337C15.73 29.3337 13.5806 30.4017 13.5806 33.4055C13.5806 36.4093 15.73 37.464 18.2665 37.464C19.962 37.464 21.3237 37.0101 22.1781 36.1156V40.6681H24.4744V29.4672H22.1781ZM19.0275 35.5549C16.9849 35.5549 15.8635 34.9542 15.8635 33.4055C15.8635 31.8436 16.9849 31.2428 19.0275 31.2428C21.0701 31.2428 22.1781 31.8436 22.1781 33.4055C22.1781 34.9542 21.0701 35.5549 19.0275 35.5549ZM34.2681 29.4672V33.8728C33.5606 34.7005 31.9051 35.4882 30.3699 35.4882C28.4875 35.4882 27.9268 34.6204 27.9268 32.9516V29.4672H25.6305L25.6038 33.8194C25.6305 36.7164 27.593 37.464 29.689 37.464C31.5981 37.464 33.1467 36.8365 34.2681 35.9554V37.3305H36.551V29.4672H34.2681ZM43.0429 29.3337C41.4008 29.3337 39.8255 29.6274 38.2234 30.1481L39.0378 31.8169C40.6532 31.3363 41.9081 31.2428 42.9361 31.2428C44.0041 31.2428 45.9265 31.363 45.9265 32.8582C44.8985 32.5111 43.657 32.2975 42.3086 32.2975C39.8121 32.2975 37.5693 32.9383 37.5693 34.9809C37.5693 36.7564 38.9443 37.464 41.1471 37.464C43.0028 37.464 44.5381 37.0368 45.9265 36.3559V37.3305H48.2227V33.3655C48.196 30.3884 46.327 29.3337 43.0429 29.3337ZM45.9265 34.8874C44.7517 35.3947 43.0429 35.7819 41.8013 35.7819C40.6131 35.7819 39.8522 35.7151 39.8522 34.8874C39.8522 34.0864 40.8801 33.7927 42.589 33.7927C44.0441 33.7927 45.1255 34.0197 45.9265 34.2733V34.8874ZM55.5555 29.3337C54.0869 29.3337 52.6985 29.7476 51.5237 30.8022V29.4672H49.2408V37.3305H51.5237V32.6179C52.9121 31.5365 54.3806 31.2428 55.6623 31.2428C56.3298 31.2428 56.9305 31.3229 57.6781 31.5098V29.6007C57.1441 29.4672 56.49 29.3337 55.5555 29.3337ZM66.5053 26.6503V30.6954C65.6509 29.801 64.2759 29.3337 62.5804 29.3337C60.0572 29.3337 57.8945 30.4017 57.8945 33.4055C57.8945 36.4093 60.0572 37.464 62.5804 37.464C64.2759 37.464 65.6509 36.9967 66.5053 36.1023V37.3305H68.7882V26.6503H66.5053ZM63.3413 35.5549C61.2988 35.5549 60.1907 34.9542 60.1907 33.4055C60.1907 31.8436 61.2988 31.2428 63.3413 31.2428C65.3839 31.2428 66.5053 31.8436 66.5053 33.4055C66.5053 34.9542 65.3839 35.5549 63.3413 35.5549Z" fill="black"/>
</svg>
