<svg width="32" height="38" viewBox="0 0 32 38" fill="none" xmlns="http://www.w3.org/2000/svg">
<path d="M9.80114 3.59401H6.46568V37H3.54073V3.59401H0.153945V1.13089H9.80114V3.59401ZM20.2353 1.13089V37H17.3104V20.1687H13.9236V37H10.9986V1.13089H13.9236V18.0135H17.3104V1.13089H20.2353ZM28.6882 15.6017V6.10843C28.6882 5.08214 28.5172 4.36373 28.1751 3.95321C27.8672 3.50848 27.4909 3.28612 27.0462 3.28612H26.7383C26.2935 3.28612 25.9001 3.50848 25.558 3.95321C25.2501 4.36373 25.0962 5.08214 25.0962 6.10843V10.932C25.0962 12.5741 25.4383 14.0109 26.1225 15.2425C26.8067 16.474 27.5422 17.6714 28.329 18.8345C29.1501 19.9635 29.9027 21.1608 30.5869 22.4266C31.2711 23.6581 31.6132 25.0949 31.6132 26.737V32.4843C31.6132 33.3395 31.4934 34.0751 31.254 34.6908C31.0145 35.3066 30.6895 35.8027 30.279 36.179C29.8685 36.5553 29.4066 36.829 28.8935 37C28.3803 37.2053 27.8501 37.3079 27.3027 37.3079H26.5843C26.0712 37.3079 25.5409 37.2053 24.9936 37C24.4804 36.829 24.0015 36.5553 23.5567 36.179C23.1462 35.8027 22.8041 35.3066 22.5304 34.6908C22.291 34.0751 22.1712 33.3395 22.1712 32.4843V22.5292H24.8396V32.0225C24.8396 33.0488 25.0107 33.7843 25.3528 34.229C25.7291 34.6395 26.1567 34.8448 26.6356 34.8448H26.9435C27.4225 34.8448 27.833 34.6395 28.1751 34.229C28.5172 33.7843 28.6882 33.0488 28.6882 32.0225V27.1989C28.6882 25.591 28.3461 24.1713 27.6619 22.9397C26.9777 21.7082 26.2251 20.5279 25.4041 19.399C24.6172 18.2359 23.8817 17.0385 23.1975 15.807C22.5133 14.5412 22.1712 13.0702 22.1712 11.3939V5.69792C22.1712 4.84267 22.291 4.10715 22.5304 3.49138C22.8041 2.8756 23.1462 2.37955 23.5567 2.00324C23.9673 1.59273 24.4291 1.30194 24.9422 1.13089C25.4896 0.925631 26.0199 0.823002 26.533 0.823002H27.0462C27.5593 0.823002 28.0725 0.925631 28.5856 1.13089C29.0987 1.30194 29.5606 1.59273 29.9711 2.00324C30.3816 2.37955 30.7066 2.8756 30.9461 3.49138C31.2198 4.10715 31.3566 4.84267 31.3566 5.69792V15.6017H28.6882Z" fill="black"/>
</svg>
