<svg width="110" height="42" viewBox="0 0 110 42" fill="none" xmlns="http://www.w3.org/2000/svg">
<path d="M9.80114 4.59401H6.46568V38H3.54073V4.59401H0.153945V2.13089H9.80114V4.59401ZM20.2353 2.13089V38H17.3104V21.1687H13.9236V38H10.9986V2.13089H13.9236V19.0135H17.3104V2.13089H20.2353ZM28.6882 16.6017V7.10843C28.6882 6.08214 28.5172 5.36373 28.1751 4.95321C27.8672 4.50848 27.4909 4.28612 27.0462 4.28612H26.7383C26.2935 4.28612 25.9001 4.50848 25.558 4.95321C25.2501 5.36373 25.0962 6.08214 25.0962 7.10843V11.932C25.0962 13.5741 25.4383 15.0109 26.1225 16.2425C26.8067 17.474 27.5422 18.6714 28.329 19.8345C29.1501 20.9635 29.9027 22.1608 30.5869 23.4266C31.2711 24.6581 31.6132 26.0949 31.6132 27.737V33.4843C31.6132 34.3395 31.4934 35.0751 31.254 35.6908C31.0145 36.3066 30.6895 36.8027 30.279 37.179C29.8685 37.5553 29.4066 37.829 28.8935 38C28.3803 38.2053 27.8501 38.3079 27.3027 38.3079H26.5843C26.0712 38.3079 25.5409 38.2053 24.9936 38C24.4804 37.829 24.0015 37.5553 23.5567 37.179C23.1462 36.8027 22.8041 36.3066 22.5304 35.6908C22.291 35.0751 22.1712 34.3395 22.1712 33.4843V23.5292H24.8396V33.0225C24.8396 34.0488 25.0107 34.7843 25.3528 35.229C25.7291 35.6395 26.1567 35.8448 26.6356 35.8448H26.9435C27.4225 35.8448 27.833 35.6395 28.1751 35.229C28.5172 34.7843 28.6882 34.0488 28.6882 33.0225V28.1989C28.6882 26.591 28.3461 25.1713 27.6619 23.9397C26.9777 22.7082 26.2251 21.5279 25.4041 20.399C24.6172 19.2359 23.8817 18.0385 23.1975 16.807C22.5133 15.5412 22.1712 14.0702 22.1712 12.3939V6.69792C22.1712 5.84267 22.291 5.10715 22.5304 4.49138C22.8041 3.8756 23.1462 3.37955 23.5567 3.00324C23.9673 2.59273 24.4291 2.30194 24.9422 2.13089C25.4896 1.92563 26.0199 1.823 26.533 1.823H27.0462C27.5593 1.823 28.0725 1.92563 28.5856 2.13089C29.0987 2.30194 29.5606 2.59273 29.9711 3.00324C30.3816 3.37955 30.7066 3.8756 30.9461 4.49138C31.2198 5.10715 31.3566 5.84267 31.3566 6.69792V16.6017H28.6882Z" fill="white"/>
<path d="M52.3895 2.98542H40.9083V5.0013H45.4474V12.3306H47.8504V5.0013H52.3895V2.98542ZM60.0416 4.33379C58.1325 4.33379 56.5839 4.96125 55.4625 5.84236V1.65039H53.1796V12.3306H55.4625V7.925C56.17 7.09728 57.8255 6.30962 59.3607 6.30962C61.2431 6.30962 61.8038 7.17738 61.8038 8.84616V12.3306H64.1001L64.1268 7.9784C64.1001 5.0814 62.1376 4.33379 60.0416 4.33379ZM70.2365 10.6084C68.7145 10.6084 67.513 10.1945 67.2594 8.93961H75.7501C75.7501 5.36175 73.3604 4.33379 70.37 4.33379C67.1793 4.33379 64.9231 5.50861 64.9231 8.4056C64.9231 11.2892 67.246 12.4641 70.2365 12.4641C73.1468 12.4641 75.0959 11.5162 75.6166 9.51367H73.3471C72.773 10.3147 71.8118 10.6084 70.2365 10.6084ZM70.3566 6.06932C71.7984 6.06932 72.9199 6.37637 73.307 7.48444H67.3395C67.6999 6.37637 68.7946 6.06932 70.3566 6.06932ZM51.0545 15.9854V19.6434H43.4449V15.9854H41.0418V25.3306H43.4449V21.6726H51.0545V25.3306H53.4575V15.9854H51.0545ZM59.7023 23.6084C58.1804 23.6084 56.9789 23.1945 56.7252 21.9396H65.2159C65.2159 18.3618 62.8263 17.3338 59.8358 17.3338C56.6451 17.3338 54.3889 18.5086 54.3889 21.4056C54.3889 24.2892 56.7119 25.4641 59.7023 25.4641C62.6127 25.4641 64.5618 24.5162 65.0824 22.5137H62.8129C62.2388 23.3147 61.2776 23.6084 59.7023 23.6084ZM59.8225 19.0693C61.2643 19.0693 62.3857 19.3764 62.7729 20.4844H56.8053C57.1658 19.3764 58.2605 19.0693 59.8225 19.0693ZM66.0865 14.6504V25.3306H68.3694V14.6504H66.0865ZM75.7232 17.3338C74.0277 17.3338 72.666 17.801 71.8116 18.6822V17.4673H69.5153V28.6681H71.8116V24.1157C72.666 25.0102 74.0277 25.4641 75.7232 25.4641C78.2597 25.4641 80.4091 24.4094 80.4091 21.4056C80.4091 18.4018 78.2597 17.3338 75.7232 17.3338ZM74.9622 23.555C72.9196 23.555 71.8116 22.9542 71.8116 21.4056C71.8116 19.8436 72.9196 19.2429 74.9622 19.2429C77.0048 19.2429 78.1262 19.8436 78.1262 21.4056C78.1262 22.9542 77.0048 23.555 74.9622 23.555ZM40.9083 35.1132C40.9083 37.8099 43.1912 38.4641 47.0227 38.4641C50.4804 38.4641 52.8434 37.9568 52.8434 35.4603C52.8434 33.0973 50.5605 32.897 46.8759 32.6968C44.1524 32.5366 43.5917 32.4031 43.5917 31.6822C43.5917 30.9879 44.1524 30.761 46.5154 30.761C49.0119 30.761 50.0399 31.0146 50.0399 32.0426H52.4429C52.4429 29.733 50.3069 28.8519 46.7824 28.8519C43.2847 28.8519 41.1887 29.5061 41.1887 31.562C41.1887 33.658 42.8041 34.2988 46.8759 34.4857C49.9064 34.6326 50.4404 34.7661 50.4404 35.5404C50.4404 36.2746 49.6794 36.555 47.1562 36.555C44.1124 36.555 43.3114 36.1011 43.3114 35.1132H40.9083ZM62.1781 30.4673V31.6822C61.3237 30.801 59.962 30.3338 58.2665 30.3338C55.73 30.3338 53.5806 31.4018 53.5806 34.4056C53.5806 37.4094 55.73 38.4641 58.2665 38.4641C59.962 38.4641 61.3237 38.0102 62.1781 37.1157V41.6681H64.4744V30.4673H62.1781ZM59.0275 36.555C56.9849 36.555 55.8635 35.9542 55.8635 34.4056C55.8635 32.8436 56.9849 32.2429 59.0275 32.2429C61.0701 32.2429 62.1781 32.8436 62.1781 34.4056C62.1781 35.9542 61.0701 36.555 59.0275 36.555ZM74.2681 30.4673V34.8729C73.5606 35.7006 71.9051 36.4882 70.3699 36.4882C68.4875 36.4882 67.9268 35.6205 67.9268 33.9517V30.4673H65.6305L65.6038 34.8195C65.6305 37.7165 67.593 38.4641 69.689 38.4641C71.5981 38.4641 73.1467 37.8366 74.2681 36.9555V38.3306H76.551V30.4673H74.2681ZM83.0429 30.3338C81.4008 30.3338 79.8255 30.6275 78.2234 31.1482L79.0378 32.8169C80.6532 32.3363 81.9081 32.2429 82.9361 32.2429C84.0041 32.2429 85.9265 32.363 85.9265 33.8582C84.8985 33.5111 83.657 33.2975 82.3086 33.2975C79.8121 33.2975 77.5693 33.9383 77.5693 35.9809C77.5693 37.7565 78.9443 38.4641 81.1471 38.4641C83.0028 38.4641 84.5381 38.0369 85.9265 37.356V38.3306H88.2227V34.3656C88.196 31.3885 86.327 30.3338 83.0429 30.3338ZM85.9265 35.8875C84.7517 36.3948 83.0429 36.7819 81.8013 36.7819C80.6131 36.7819 79.8522 36.7152 79.8522 35.8875C79.8522 35.0865 80.8801 34.7928 82.589 34.7928C84.0441 34.7928 85.1255 35.0197 85.9265 35.2734V35.8875ZM95.5555 30.3338C94.0869 30.3338 92.6985 30.7476 91.5237 31.8023V30.4673H89.2408V38.3306H91.5237V33.6179C92.9121 32.5366 94.3806 32.2429 95.6623 32.2429C96.3298 32.2429 96.9305 32.323 97.6781 32.5099V30.6008C97.1441 30.4673 96.49 30.3338 95.5555 30.3338ZM106.505 27.6504V31.6955C105.651 30.801 104.276 30.3338 102.58 30.3338C100.057 30.3338 97.8945 31.4018 97.8945 34.4056C97.8945 37.4094 100.057 38.4641 102.58 38.4641C104.276 38.4641 105.651 37.9968 106.505 37.1023V38.3306H108.788V27.6504H106.505ZM103.341 36.555C101.299 36.555 100.191 35.9542 100.191 34.4056C100.191 32.8436 101.299 32.2429 103.341 32.2429C105.384 32.2429 106.505 32.8436 106.505 34.4056C106.505 35.9542 105.384 36.555 103.341 36.555Z" fill="white"/>
</svg>
